<mxfile host="Electron" modified="2023-11-30T03:54:49.020Z" agent="Mozilla/5.0 (Windows NT 10.0; Win64; x64) AppleWebKit/537.36 (KHTML, like Gecko) draw.io/21.4.0 Chrome/112.0.5615.204 Electron/24.5.1 Safari/537.36" etag="BlC71BafwcRRrmuM4FGz" version="21.4.0" type="device" pages="3">
  <diagram name="流程图" id="wr5gjk_wqnr7ja08OIuZ">
    <mxGraphModel dx="1548" dy="902" grid="1" gridSize="10" guides="1" tooltips="1" connect="1" arrows="1" fold="1" page="1" pageScale="1" pageWidth="827" pageHeight="1169" math="0" shadow="0">
      <root>
        <mxCell id="0" />
        <mxCell id="1" parent="0" />
        <mxCell id="g1iSzMeRMn1IHAK_DKh--6" style="edgeStyle=orthogonalEdgeStyle;rounded=0;sketch=1;hachureGap=4;jiggle=2;curveFitting=1;orthogonalLoop=1;jettySize=auto;html=1;exitX=1;exitY=0.5;exitDx=0;exitDy=0;entryX=0;entryY=0.5;entryDx=0;entryDy=0;fontFamily=Architects Daughter;fontSource=https%3A%2F%2Ffonts.googleapis.com%2Fcss%3Ffamily%3DArchitects%2BDaughter;fontSize=16;" parent="1" source="g1iSzMeRMn1IHAK_DKh--1" target="g1iSzMeRMn1IHAK_DKh--2" edge="1">
          <mxGeometry relative="1" as="geometry" />
        </mxCell>
        <mxCell id="g1iSzMeRMn1IHAK_DKh--7" style="edgeStyle=orthogonalEdgeStyle;rounded=0;sketch=1;hachureGap=4;jiggle=2;curveFitting=1;orthogonalLoop=1;jettySize=auto;html=1;fontFamily=Architects Daughter;fontSource=https%3A%2F%2Ffonts.googleapis.com%2Fcss%3Ffamily%3DArchitects%2BDaughter;fontSize=16;" parent="1" source="g1iSzMeRMn1IHAK_DKh--1" target="g1iSzMeRMn1IHAK_DKh--3" edge="1">
          <mxGeometry relative="1" as="geometry" />
        </mxCell>
        <mxCell id="g1iSzMeRMn1IHAK_DKh--8" style="edgeStyle=orthogonalEdgeStyle;rounded=0;sketch=1;hachureGap=4;jiggle=2;curveFitting=1;orthogonalLoop=1;jettySize=auto;html=1;exitX=1;exitY=0.5;exitDx=0;exitDy=0;entryX=0;entryY=0.5;entryDx=0;entryDy=0;fontFamily=Architects Daughter;fontSource=https%3A%2F%2Ffonts.googleapis.com%2Fcss%3Ffamily%3DArchitects%2BDaughter;fontSize=16;" parent="1" source="g1iSzMeRMn1IHAK_DKh--1" target="g1iSzMeRMn1IHAK_DKh--4" edge="1">
          <mxGeometry relative="1" as="geometry" />
        </mxCell>
        <mxCell id="g1iSzMeRMn1IHAK_DKh--1" value="main" style="rounded=0;sketch=1;hachureGap=4;jiggle=2;curveFitting=1;fontFamily=Architects Daughter;fontSource=https%3A%2F%2Ffonts.googleapis.com%2Fcss%3Ffamily%3DArchitects%2BDaughter;fontSize=16;whiteSpace=wrap;html=1;labelBackgroundColor=none;labelBorderColor=none;" parent="1" vertex="1">
          <mxGeometry x="50" y="430" width="120" height="60" as="geometry" />
        </mxCell>
        <mxCell id="g1iSzMeRMn1IHAK_DKh--11" style="edgeStyle=orthogonalEdgeStyle;rounded=0;sketch=1;hachureGap=4;jiggle=2;curveFitting=1;orthogonalLoop=1;jettySize=auto;html=1;exitX=1;exitY=0.5;exitDx=0;exitDy=0;entryX=0;entryY=0.5;entryDx=0;entryDy=0;fontFamily=Architects Daughter;fontSource=https%3A%2F%2Ffonts.googleapis.com%2Fcss%3Ffamily%3DArchitects%2BDaughter;fontSize=16;" parent="1" source="g1iSzMeRMn1IHAK_DKh--2" target="g1iSzMeRMn1IHAK_DKh--10" edge="1">
          <mxGeometry relative="1" as="geometry" />
        </mxCell>
        <mxCell id="g1iSzMeRMn1IHAK_DKh--2" value="item_user_kafka_sub_process" style="rounded=0;sketch=1;hachureGap=4;jiggle=2;curveFitting=1;fontFamily=Architects Daughter;fontSource=https%3A%2F%2Ffonts.googleapis.com%2Fcss%3Ffamily%3DArchitects%2BDaughter;fontSize=16;whiteSpace=wrap;html=1;labelBackgroundColor=none;labelBorderColor=none;" parent="1" vertex="1">
          <mxGeometry x="310" y="290" width="260" height="60" as="geometry" />
        </mxCell>
        <mxCell id="g1iSzMeRMn1IHAK_DKh--3" value="order_kafka_sub_process" style="rounded=0;sketch=1;hachureGap=4;jiggle=2;curveFitting=1;fontFamily=Architects Daughter;fontSource=https%3A%2F%2Ffonts.googleapis.com%2Fcss%3Ffamily%3DArchitects%2BDaughter;fontSize=16;whiteSpace=wrap;html=1;labelBackgroundColor=none;labelBorderColor=none;" parent="1" vertex="1">
          <mxGeometry x="310" y="430" width="260" height="60" as="geometry" />
        </mxCell>
        <mxCell id="g1iSzMeRMn1IHAK_DKh--4" value="data_save_process" style="rounded=0;sketch=1;hachureGap=4;jiggle=2;curveFitting=1;fontFamily=Architects Daughter;fontSource=https%3A%2F%2Ffonts.googleapis.com%2Fcss%3Ffamily%3DArchitects%2BDaughter;fontSize=16;whiteSpace=wrap;html=1;labelBackgroundColor=none;labelBorderColor=none;" parent="1" vertex="1">
          <mxGeometry x="310" y="585" width="260" height="60" as="geometry" />
        </mxCell>
        <mxCell id="g1iSzMeRMn1IHAK_DKh--9" value="" style="sketch=0;pointerEvents=1;shadow=0;dashed=0;html=1;strokeColor=#82b366;labelPosition=center;verticalLabelPosition=bottom;verticalAlign=top;align=center;fillColor=#d5e8d4;shape=mxgraph.azure.queue_generic;hachureGap=4;jiggle=2;curveFitting=1;fontFamily=Architects Daughter;fontSource=https%3A%2F%2Ffonts.googleapis.com%2Fcss%3Ffamily%3DArchitects%2BDaughter;fontSize=16;flipH=0;fontStyle=0;aspect=fixed;" parent="1" vertex="1">
          <mxGeometry x="687" y="220" width="140" height="42" as="geometry" />
        </mxCell>
        <mxCell id="g1iSzMeRMn1IHAK_DKh--16" value="" style="edgeStyle=orthogonalEdgeStyle;rounded=0;sketch=1;hachureGap=4;jiggle=2;curveFitting=1;orthogonalLoop=1;jettySize=auto;html=1;fontFamily=Architects Daughter;fontSource=https%3A%2F%2Ffonts.googleapis.com%2Fcss%3Ffamily%3DArchitects%2BDaughter;fontSize=16;" parent="1" source="g1iSzMeRMn1IHAK_DKh--10" target="g1iSzMeRMn1IHAK_DKh--15" edge="1">
          <mxGeometry relative="1" as="geometry" />
        </mxCell>
        <mxCell id="g1iSzMeRMn1IHAK_DKh--10" value="pull message" style="rounded=0;whiteSpace=wrap;html=1;sketch=1;hachureGap=4;jiggle=2;curveFitting=1;fontFamily=Architects Daughter;fontSource=https%3A%2F%2Ffonts.googleapis.com%2Fcss%3Ffamily%3DArchitects%2BDaughter;fontSize=16;" parent="1" vertex="1">
          <mxGeometry x="697" y="290" width="120" height="60" as="geometry" />
        </mxCell>
        <mxCell id="g1iSzMeRMn1IHAK_DKh--20" value="" style="edgeStyle=orthogonalEdgeStyle;rounded=0;sketch=1;hachureGap=4;jiggle=2;curveFitting=1;orthogonalLoop=1;jettySize=auto;html=1;fontFamily=Architects Daughter;fontSource=https%3A%2F%2Ffonts.googleapis.com%2Fcss%3Ffamily%3DArchitects%2BDaughter;fontSize=16;" parent="1" source="g1iSzMeRMn1IHAK_DKh--15" target="g1iSzMeRMn1IHAK_DKh--19" edge="1">
          <mxGeometry relative="1" as="geometry" />
        </mxCell>
        <mxCell id="g1iSzMeRMn1IHAK_DKh--24" value="" style="edgeStyle=orthogonalEdgeStyle;rounded=0;sketch=1;hachureGap=4;jiggle=2;curveFitting=1;orthogonalLoop=1;jettySize=auto;html=1;fontFamily=Architects Daughter;fontSource=https%3A%2F%2Ffonts.googleapis.com%2Fcss%3Ffamily%3DArchitects%2BDaughter;fontSize=16;" parent="1" source="g1iSzMeRMn1IHAK_DKh--15" target="g1iSzMeRMn1IHAK_DKh--23" edge="1">
          <mxGeometry relative="1" as="geometry" />
        </mxCell>
        <mxCell id="g1iSzMeRMn1IHAK_DKh--15" value="is begin-msg?" style="rhombus;whiteSpace=wrap;html=1;fontSize=16;fontFamily=Architects Daughter;rounded=0;sketch=1;hachureGap=4;jiggle=2;curveFitting=1;fontSource=https%3A%2F%2Ffonts.googleapis.com%2Fcss%3Ffamily%3DArchitects%2BDaughter;" parent="1" vertex="1">
          <mxGeometry x="917" y="280" width="153" height="80" as="geometry" />
        </mxCell>
        <mxCell id="g1iSzMeRMn1IHAK_DKh--22" value="" style="edgeStyle=orthogonalEdgeStyle;rounded=0;sketch=1;hachureGap=4;jiggle=2;curveFitting=1;orthogonalLoop=1;jettySize=auto;html=1;fontFamily=Architects Daughter;fontSource=https%3A%2F%2Ffonts.googleapis.com%2Fcss%3Ffamily%3DArchitects%2BDaughter;fontSize=16;" parent="1" source="g1iSzMeRMn1IHAK_DKh--19" target="g1iSzMeRMn1IHAK_DKh--21" edge="1">
          <mxGeometry relative="1" as="geometry" />
        </mxCell>
        <mxCell id="Xys044UkS5yx5VQ6EneC-3" value="" style="edgeStyle=orthogonalEdgeStyle;rounded=0;sketch=1;hachureGap=4;jiggle=2;curveFitting=1;orthogonalLoop=1;jettySize=auto;html=1;fontFamily=Architects Daughter;fontSource=https%3A%2F%2Ffonts.googleapis.com%2Fcss%3Ffamily%3DArchitects%2BDaughter;fontSize=16;" parent="1" source="g1iSzMeRMn1IHAK_DKh--19" target="Xys044UkS5yx5VQ6EneC-2" edge="1">
          <mxGeometry relative="1" as="geometry" />
        </mxCell>
        <mxCell id="g1iSzMeRMn1IHAK_DKh--19" value="is end-msg?" style="rhombus;whiteSpace=wrap;html=1;fontSize=16;fontFamily=Architects Daughter;rounded=0;sketch=1;hachureGap=4;jiggle=2;curveFitting=1;fontSource=https%3A%2F%2Ffonts.googleapis.com%2Fcss%3Ffamily%3DArchitects%2BDaughter;" parent="1" vertex="1">
          <mxGeometry x="1150" y="280" width="153" height="80" as="geometry" />
        </mxCell>
        <mxCell id="Xys044UkS5yx5VQ6EneC-5" value="" style="edgeStyle=orthogonalEdgeStyle;rounded=0;sketch=1;hachureGap=4;jiggle=2;curveFitting=1;orthogonalLoop=1;jettySize=auto;html=1;fontFamily=Architects Daughter;fontSource=https%3A%2F%2Ffonts.googleapis.com%2Fcss%3Ffamily%3DArchitects%2BDaughter;fontSize=16;" parent="1" source="g1iSzMeRMn1IHAK_DKh--21" target="Xys044UkS5yx5VQ6EneC-4" edge="1">
          <mxGeometry relative="1" as="geometry" />
        </mxCell>
        <mxCell id="g1iSzMeRMn1IHAK_DKh--21" value="notify task center" style="whiteSpace=wrap;html=1;fontSize=16;fontFamily=Architects Daughter;rounded=0;sketch=1;hachureGap=4;jiggle=2;curveFitting=1;fontSource=https%3A%2F%2Ffonts.googleapis.com%2Fcss%3Ffamily%3DArchitects%2BDaughter;" parent="1" vertex="1">
          <mxGeometry x="1399.5" y="290" width="120" height="60" as="geometry" />
        </mxCell>
        <mxCell id="Xys044UkS5yx5VQ6EneC-1" style="edgeStyle=orthogonalEdgeStyle;rounded=0;sketch=1;hachureGap=4;jiggle=2;curveFitting=1;orthogonalLoop=1;jettySize=auto;html=1;exitX=1;exitY=0.5;exitDx=0;exitDy=0;fontFamily=Architects Daughter;fontSource=https%3A%2F%2Ffonts.googleapis.com%2Fcss%3Ffamily%3DArchitects%2BDaughter;fontSize=16;" parent="1" source="g1iSzMeRMn1IHAK_DKh--23" target="g1iSzMeRMn1IHAK_DKh--21" edge="1">
          <mxGeometry relative="1" as="geometry" />
        </mxCell>
        <mxCell id="g1iSzMeRMn1IHAK_DKh--23" value="register task(simple/timing)&lt;br style=&quot;font-size: 16px;&quot;&gt;into task container" style="whiteSpace=wrap;html=1;fontSize=16;fontFamily=Architects Daughter;rounded=0;sketch=1;hachureGap=4;jiggle=2;curveFitting=1;fontSource=https%3A%2F%2Ffonts.googleapis.com%2Fcss%3Ffamily%3DArchitects%2BDaughter;" parent="1" vertex="1">
          <mxGeometry x="852.41" y="450" width="282.19" height="60" as="geometry" />
        </mxCell>
        <mxCell id="Xys044UkS5yx5VQ6EneC-21" style="edgeStyle=orthogonalEdgeStyle;rounded=0;sketch=1;hachureGap=4;jiggle=2;curveFitting=1;orthogonalLoop=1;jettySize=auto;html=1;exitX=1;exitY=0.5;exitDx=0;exitDy=0;fontFamily=Architects Daughter;fontSource=https%3A%2F%2Ffonts.googleapis.com%2Fcss%3Ffamily%3DArchitects%2BDaughter;fontSize=16;" parent="1" source="Xys044UkS5yx5VQ6EneC-2" target="Xys044UkS5yx5VQ6EneC-18" edge="1">
          <mxGeometry relative="1" as="geometry" />
        </mxCell>
        <mxCell id="Xys044UkS5yx5VQ6EneC-2" value="callback" style="whiteSpace=wrap;html=1;fontSize=16;fontFamily=Architects Daughter;rounded=0;sketch=1;hachureGap=4;jiggle=2;curveFitting=1;fontSource=https%3A%2F%2Ffonts.googleapis.com%2Fcss%3Ffamily%3DArchitects%2BDaughter;" parent="1" vertex="1">
          <mxGeometry x="1166.5" y="130" width="120" height="60" as="geometry" />
        </mxCell>
        <mxCell id="Xys044UkS5yx5VQ6EneC-7" value="" style="edgeStyle=orthogonalEdgeStyle;rounded=0;sketch=1;hachureGap=4;jiggle=2;curveFitting=1;orthogonalLoop=1;jettySize=auto;html=1;fontFamily=Architects Daughter;fontSource=https%3A%2F%2Ffonts.googleapis.com%2Fcss%3Ffamily%3DArchitects%2BDaughter;fontSize=16;" parent="1" source="Xys044UkS5yx5VQ6EneC-4" target="Xys044UkS5yx5VQ6EneC-6" edge="1">
          <mxGeometry relative="1" as="geometry" />
        </mxCell>
        <mxCell id="Xys044UkS5yx5VQ6EneC-4" value="get current task by name and run&amp;nbsp;" style="whiteSpace=wrap;html=1;fontSize=16;fontFamily=Architects Daughter;rounded=0;sketch=1;hachureGap=4;jiggle=2;curveFitting=1;fontSource=https%3A%2F%2Ffonts.googleapis.com%2Fcss%3Ffamily%3DArchitects%2BDaughter;" parent="1" vertex="1">
          <mxGeometry x="1599.5" y="290" width="150.5" height="60" as="geometry" />
        </mxCell>
        <mxCell id="Xys044UkS5yx5VQ6EneC-11" value="" style="edgeStyle=orthogonalEdgeStyle;rounded=0;sketch=1;hachureGap=4;jiggle=2;curveFitting=1;orthogonalLoop=1;jettySize=auto;html=1;fontFamily=Architects Daughter;fontSource=https%3A%2F%2Ffonts.googleapis.com%2Fcss%3Ffamily%3DArchitects%2BDaughter;fontSize=16;" parent="1" source="Xys044UkS5yx5VQ6EneC-6" target="Xys044UkS5yx5VQ6EneC-10" edge="1">
          <mxGeometry relative="1" as="geometry" />
        </mxCell>
        <mxCell id="Xys044UkS5yx5VQ6EneC-6" value="数据转化为 dataFrame" style="whiteSpace=wrap;html=1;fontSize=16;fontFamily=Architects Daughter;rounded=0;sketch=1;hachureGap=4;jiggle=2;curveFitting=1;fontSource=https%3A%2F%2Ffonts.googleapis.com%2Fcss%3Ffamily%3DArchitects%2BDaughter;" parent="1" vertex="1">
          <mxGeometry x="1830" y="290" width="150.5" height="60" as="geometry" />
        </mxCell>
        <mxCell id="Xys044UkS5yx5VQ6EneC-13" value="" style="edgeStyle=orthogonalEdgeStyle;rounded=0;sketch=1;hachureGap=4;jiggle=2;curveFitting=1;orthogonalLoop=1;jettySize=auto;html=1;fontFamily=Architects Daughter;fontSource=https%3A%2F%2Ffonts.googleapis.com%2Fcss%3Ffamily%3DArchitects%2BDaughter;fontSize=16;" parent="1" source="Xys044UkS5yx5VQ6EneC-10" target="Xys044UkS5yx5VQ6EneC-12" edge="1">
          <mxGeometry relative="1" as="geometry" />
        </mxCell>
        <mxCell id="Xys044UkS5yx5VQ6EneC-16" style="edgeStyle=orthogonalEdgeStyle;rounded=0;sketch=1;hachureGap=4;jiggle=2;curveFitting=1;orthogonalLoop=1;jettySize=auto;html=1;exitX=1;exitY=0.5;exitDx=0;exitDy=0;fontFamily=Architects Daughter;fontSource=https%3A%2F%2Ffonts.googleapis.com%2Fcss%3Ffamily%3DArchitects%2BDaughter;fontSize=16;" parent="1" source="Xys044UkS5yx5VQ6EneC-10" target="Xys044UkS5yx5VQ6EneC-15" edge="1">
          <mxGeometry relative="1" as="geometry" />
        </mxCell>
        <mxCell id="Xys044UkS5yx5VQ6EneC-10" value="LabelContext 构建" style="whiteSpace=wrap;html=1;fontSize=16;fontFamily=Architects Daughter;rounded=0;sketch=1;hachureGap=4;jiggle=2;curveFitting=1;fontSource=https%3A%2F%2Ffonts.googleapis.com%2Fcss%3Ffamily%3DArchitects%2BDaughter;" parent="1" vertex="1">
          <mxGeometry x="2060.5" y="290" width="150.5" height="60" as="geometry" />
        </mxCell>
        <mxCell id="Xys044UkS5yx5VQ6EneC-19" style="edgeStyle=orthogonalEdgeStyle;rounded=0;sketch=1;hachureGap=4;jiggle=2;curveFitting=1;orthogonalLoop=1;jettySize=auto;html=1;exitX=1;exitY=0.5;exitDx=0;exitDy=0;entryX=0;entryY=0.5;entryDx=0;entryDy=0;fontFamily=Architects Daughter;fontSource=https%3A%2F%2Ffonts.googleapis.com%2Fcss%3Ffamily%3DArchitects%2BDaughter;fontSize=16;" parent="1" source="Xys044UkS5yx5VQ6EneC-12" target="Xys044UkS5yx5VQ6EneC-18" edge="1">
          <mxGeometry relative="1" as="geometry" />
        </mxCell>
        <mxCell id="Xys044UkS5yx5VQ6EneC-12" value="featureExecutor&lt;br style=&quot;font-size: 16px;&quot;&gt;遍历特征计算和保存" style="whiteSpace=wrap;html=1;fontSize=16;fontFamily=Architects Daughter;rounded=0;sketch=1;hachureGap=4;jiggle=2;curveFitting=1;fontSource=https%3A%2F%2Ffonts.googleapis.com%2Fcss%3Ffamily%3DArchitects%2BDaughter;" parent="1" vertex="1">
          <mxGeometry x="2291" y="230" width="150.5" height="60" as="geometry" />
        </mxCell>
        <mxCell id="Xys044UkS5yx5VQ6EneC-20" style="edgeStyle=orthogonalEdgeStyle;rounded=0;sketch=1;hachureGap=4;jiggle=2;curveFitting=1;orthogonalLoop=1;jettySize=auto;html=1;exitX=1;exitY=0.5;exitDx=0;exitDy=0;entryX=0;entryY=0.5;entryDx=0;entryDy=0;fontFamily=Architects Daughter;fontSource=https%3A%2F%2Ffonts.googleapis.com%2Fcss%3Ffamily%3DArchitects%2BDaughter;fontSize=16;" parent="1" source="Xys044UkS5yx5VQ6EneC-15" target="Xys044UkS5yx5VQ6EneC-18" edge="1">
          <mxGeometry relative="1" as="geometry" />
        </mxCell>
        <mxCell id="Xys044UkS5yx5VQ6EneC-15" value="labelExecutor&lt;br style=&quot;font-size: 16px;&quot;&gt;遍历标签计算和保存" style="whiteSpace=wrap;html=1;fontSize=16;fontFamily=Architects Daughter;rounded=0;sketch=1;hachureGap=4;jiggle=2;curveFitting=1;fontSource=https%3A%2F%2Ffonts.googleapis.com%2Fcss%3Ffamily%3DArchitects%2BDaughter;" parent="1" vertex="1">
          <mxGeometry x="2291" y="350" width="150.5" height="60" as="geometry" />
        </mxCell>
        <mxCell id="Xys044UkS5yx5VQ6EneC-18" value="" style="ellipse;whiteSpace=wrap;html=1;aspect=fixed;sketch=1;hachureGap=4;jiggle=2;curveFitting=1;fontFamily=Architects Daughter;fontSource=https%3A%2F%2Ffonts.googleapis.com%2Fcss%3Ffamily%3DArchitects%2BDaughter;fontSize=16;fillColor=#d5e8d4;strokeColor=#82b366;" parent="1" vertex="1">
          <mxGeometry x="2560" y="305" width="30" height="30" as="geometry" />
        </mxCell>
      </root>
    </mxGraphModel>
  </diagram>
  <diagram id="If7VX364kmco69tScT60" name="类图">
    <mxGraphModel dx="7178" dy="2255" grid="1" gridSize="10" guides="1" tooltips="1" connect="1" arrows="1" fold="1" page="1" pageScale="1" pageWidth="827" pageHeight="1169" math="0" shadow="0">
      <root>
        <mxCell id="0" />
        <mxCell id="1" parent="0" />
        <mxCell id="wlWRHj6FngoxgrmBRWXh-1" value="ProcessArgs" style="swimlane;fontStyle=0;childLayout=stackLayout;horizontal=1;startSize=26;fillColor=#e1d5e7;horizontalStack=0;resizeParent=1;resizeParentMax=0;resizeLast=0;collapsible=1;marginBottom=0;whiteSpace=wrap;html=1;hachureGap=4;fontFamily=Times New Roman;fontSize=20;strokeColor=#9673a6;rounded=1;sketch=1;curveFitting=1;jiggle=2;" parent="1" vertex="1">
          <mxGeometry x="1710" y="585" width="380" height="104" as="geometry" />
        </mxCell>
        <mxCell id="wlWRHj6FngoxgrmBRWXh-2" value="+ _share_dic: dict" style="text;strokeColor=#9673a6;fillColor=#e1d5e7;align=left;verticalAlign=top;spacingLeft=4;spacingRight=4;overflow=hidden;rotatable=0;points=[[0,0.5],[1,0.5]];portConstraint=eastwest;whiteSpace=wrap;html=1;fontSize=20;fontFamily=Times New Roman;rounded=1;sketch=1;curveFitting=1;jiggle=2;" parent="wlWRHj6FngoxgrmBRWXh-1" vertex="1">
          <mxGeometry y="26" width="380" height="26" as="geometry" />
        </mxCell>
        <mxCell id="wlWRHj6FngoxgrmBRWXh-3" value="+ _read_write_lock: ReadWriterLock" style="text;strokeColor=#9673a6;fillColor=#e1d5e7;align=left;verticalAlign=top;spacingLeft=4;spacingRight=4;overflow=hidden;rotatable=0;points=[[0,0.5],[1,0.5]];portConstraint=eastwest;whiteSpace=wrap;html=1;fontSize=20;fontFamily=Times New Roman;rounded=1;sketch=1;curveFitting=1;jiggle=2;" parent="wlWRHj6FngoxgrmBRWXh-1" vertex="1">
          <mxGeometry y="52" width="380" height="26" as="geometry" />
        </mxCell>
        <mxCell id="wlWRHj6FngoxgrmBRWXh-4" value="+ _share_queue: queue" style="text;strokeColor=#9673a6;fillColor=#e1d5e7;align=left;verticalAlign=top;spacingLeft=4;spacingRight=4;overflow=hidden;rotatable=0;points=[[0,0.5],[1,0.5]];portConstraint=eastwest;whiteSpace=wrap;html=1;fontSize=20;fontFamily=Times New Roman;rounded=1;sketch=1;curveFitting=1;jiggle=2;" parent="wlWRHj6FngoxgrmBRWXh-1" vertex="1">
          <mxGeometry y="78" width="380" height="26" as="geometry" />
        </mxCell>
        <mxCell id="FiLHJc2i6cJhPRo3SYG--1" value="BaseConsumer" style="swimlane;fontStyle=1;align=center;verticalAlign=top;childLayout=stackLayout;horizontal=1;startSize=26;horizontalStack=0;resizeParent=1;resizeParentMax=0;resizeLast=0;collapsible=1;marginBottom=0;whiteSpace=wrap;html=1;hachureGap=4;fontFamily=Times New Roman;fontSize=20;fillColor=#d5e8d4;strokeColor=#82b366;rounded=1;sketch=1;curveFitting=1;jiggle=2;" vertex="1" parent="1">
          <mxGeometry x="400" y="250" width="490" height="178" as="geometry" />
        </mxCell>
        <mxCell id="FiLHJc2i6cJhPRo3SYG--2" value="+_task_center: TaskCenter&lt;br&gt;+ _ctype: string 用于决定consumer要监听那个topic" style="text;strokeColor=#82b366;fillColor=#d5e8d4;align=left;verticalAlign=top;spacingLeft=4;spacingRight=4;overflow=hidden;rotatable=0;points=[[0,0.5],[1,0.5]];portConstraint=eastwest;whiteSpace=wrap;html=1;fontSize=20;fontFamily=Times New Roman;rounded=1;sketch=1;curveFitting=1;jiggle=2;" vertex="1" parent="FiLHJc2i6cJhPRo3SYG--1">
          <mxGeometry y="26" width="490" height="74" as="geometry" />
        </mxCell>
        <mxCell id="FiLHJc2i6cJhPRo3SYG--3" value="" style="line;strokeWidth=1;fillColor=#d5e8d4;align=left;verticalAlign=middle;spacingTop=-1;spacingLeft=3;spacingRight=3;rotatable=0;labelPosition=right;points=[];portConstraint=eastwest;strokeColor=#82b366;hachureGap=4;fontFamily=Times New Roman;fontSize=20;html=1;rounded=1;sketch=1;curveFitting=1;jiggle=2;" vertex="1" parent="FiLHJc2i6cJhPRo3SYG--1">
          <mxGeometry y="100" width="490" height="8" as="geometry" />
        </mxCell>
        <mxCell id="FiLHJc2i6cJhPRo3SYG--4" value="+ pull_message()&lt;br&gt;+ _read_one_message()" style="text;strokeColor=#82b366;fillColor=#d5e8d4;align=left;verticalAlign=top;spacingLeft=4;spacingRight=4;overflow=hidden;rotatable=0;points=[[0,0.5],[1,0.5]];portConstraint=eastwest;whiteSpace=wrap;html=1;fontSize=20;fontFamily=Times New Roman;rounded=1;sketch=1;curveFitting=1;jiggle=2;" vertex="1" parent="FiLHJc2i6cJhPRo3SYG--1">
          <mxGeometry y="108" width="490" height="70" as="geometry" />
        </mxCell>
        <mxCell id="FiLHJc2i6cJhPRo3SYG--5" value="SingleModelConsumer" style="swimlane;fontStyle=1;align=center;verticalAlign=top;childLayout=stackLayout;horizontal=1;startSize=26;horizontalStack=0;resizeParent=1;resizeParentMax=0;resizeLast=0;collapsible=1;marginBottom=0;whiteSpace=wrap;html=1;hachureGap=4;fontFamily=Times New Roman;fontSize=20;fillColor=#d5e8d4;strokeColor=#82b366;rounded=1;sketch=1;curveFitting=1;jiggle=2;" vertex="1" parent="1">
          <mxGeometry x="420" y="520" width="160" height="86" as="geometry" />
        </mxCell>
        <mxCell id="FiLHJc2i6cJhPRo3SYG--6" value="+ field: type" style="text;strokeColor=#82b366;fillColor=#d5e8d4;align=left;verticalAlign=top;spacingLeft=4;spacingRight=4;overflow=hidden;rotatable=0;points=[[0,0.5],[1,0.5]];portConstraint=eastwest;whiteSpace=wrap;html=1;fontSize=20;fontFamily=Times New Roman;rounded=1;sketch=1;curveFitting=1;jiggle=2;" vertex="1" parent="FiLHJc2i6cJhPRo3SYG--5">
          <mxGeometry y="26" width="160" height="26" as="geometry" />
        </mxCell>
        <mxCell id="FiLHJc2i6cJhPRo3SYG--7" value="" style="line;strokeWidth=1;fillColor=#d5e8d4;align=left;verticalAlign=middle;spacingTop=-1;spacingLeft=3;spacingRight=3;rotatable=0;labelPosition=right;points=[];portConstraint=eastwest;strokeColor=#82b366;hachureGap=4;fontFamily=Times New Roman;fontSize=20;html=1;rounded=1;sketch=1;curveFitting=1;jiggle=2;" vertex="1" parent="FiLHJc2i6cJhPRo3SYG--5">
          <mxGeometry y="52" width="160" height="8" as="geometry" />
        </mxCell>
        <mxCell id="FiLHJc2i6cJhPRo3SYG--8" value="+ method(type): type" style="text;strokeColor=#82b366;fillColor=#d5e8d4;align=left;verticalAlign=top;spacingLeft=4;spacingRight=4;overflow=hidden;rotatable=0;points=[[0,0.5],[1,0.5]];portConstraint=eastwest;whiteSpace=wrap;html=1;fontSize=20;fontFamily=Times New Roman;rounded=1;sketch=1;curveFitting=1;jiggle=2;" vertex="1" parent="FiLHJc2i6cJhPRo3SYG--5">
          <mxGeometry y="60" width="160" height="26" as="geometry" />
        </mxCell>
        <mxCell id="FiLHJc2i6cJhPRo3SYG--9" value="OrderConsumer" style="swimlane;fontStyle=1;align=center;verticalAlign=top;childLayout=stackLayout;horizontal=1;startSize=26;horizontalStack=0;resizeParent=1;resizeParentMax=0;resizeLast=0;collapsible=1;marginBottom=0;whiteSpace=wrap;html=1;hachureGap=4;fontFamily=Times New Roman;fontSize=20;fillColor=#d5e8d4;strokeColor=#82b366;rounded=1;sketch=1;curveFitting=1;jiggle=2;" vertex="1" parent="1">
          <mxGeometry x="680" y="520" width="160" height="86" as="geometry" />
        </mxCell>
        <mxCell id="FiLHJc2i6cJhPRo3SYG--10" value="+ field: type" style="text;strokeColor=#82b366;fillColor=#d5e8d4;align=left;verticalAlign=top;spacingLeft=4;spacingRight=4;overflow=hidden;rotatable=0;points=[[0,0.5],[1,0.5]];portConstraint=eastwest;whiteSpace=wrap;html=1;fontSize=20;fontFamily=Times New Roman;rounded=1;sketch=1;curveFitting=1;jiggle=2;" vertex="1" parent="FiLHJc2i6cJhPRo3SYG--9">
          <mxGeometry y="26" width="160" height="26" as="geometry" />
        </mxCell>
        <mxCell id="FiLHJc2i6cJhPRo3SYG--11" value="" style="line;strokeWidth=1;fillColor=#d5e8d4;align=left;verticalAlign=middle;spacingTop=-1;spacingLeft=3;spacingRight=3;rotatable=0;labelPosition=right;points=[];portConstraint=eastwest;strokeColor=#82b366;hachureGap=4;fontFamily=Times New Roman;fontSize=20;html=1;rounded=1;sketch=1;curveFitting=1;jiggle=2;" vertex="1" parent="FiLHJc2i6cJhPRo3SYG--9">
          <mxGeometry y="52" width="160" height="8" as="geometry" />
        </mxCell>
        <mxCell id="FiLHJc2i6cJhPRo3SYG--12" value="+ method(type): type" style="text;strokeColor=#82b366;fillColor=#d5e8d4;align=left;verticalAlign=top;spacingLeft=4;spacingRight=4;overflow=hidden;rotatable=0;points=[[0,0.5],[1,0.5]];portConstraint=eastwest;whiteSpace=wrap;html=1;fontSize=20;fontFamily=Times New Roman;rounded=1;sketch=1;curveFitting=1;jiggle=2;" vertex="1" parent="FiLHJc2i6cJhPRo3SYG--9">
          <mxGeometry y="60" width="160" height="26" as="geometry" />
        </mxCell>
        <mxCell id="FiLHJc2i6cJhPRo3SYG--13" value="Extends" style="endArrow=block;endSize=16;endFill=0;html=1;rounded=1;hachureGap=4;fontFamily=Times New Roman;fontSize=16;exitX=0.5;exitY=0;exitDx=0;exitDy=0;entryX=0.525;entryY=0.931;entryDx=0;entryDy=0;entryPerimeter=0;fillColor=#d5e8d4;strokeColor=#82b366;sketch=1;curveFitting=1;jiggle=2;" edge="1" parent="1" source="FiLHJc2i6cJhPRo3SYG--5" target="FiLHJc2i6cJhPRo3SYG--4">
          <mxGeometry width="160" relative="1" as="geometry">
            <mxPoint x="910" y="158" as="sourcePoint" />
            <mxPoint x="550" y="328" as="targetPoint" />
          </mxGeometry>
        </mxCell>
        <mxCell id="FiLHJc2i6cJhPRo3SYG--14" value="Extends" style="endArrow=block;endSize=16;endFill=0;html=1;rounded=1;hachureGap=4;fontFamily=Times New Roman;fontSize=16;exitX=0.5;exitY=0;exitDx=0;exitDy=0;fillColor=#d5e8d4;strokeColor=#82b366;sketch=1;curveFitting=1;jiggle=2;" edge="1" parent="1" source="FiLHJc2i6cJhPRo3SYG--9" target="FiLHJc2i6cJhPRo3SYG--4">
          <mxGeometry width="160" relative="1" as="geometry">
            <mxPoint x="420" y="438" as="sourcePoint" />
            <mxPoint x="550" y="368" as="targetPoint" />
          </mxGeometry>
        </mxCell>
        <mxCell id="FiLHJc2i6cJhPRo3SYG--15" value="TaskCenter" style="swimlane;fontStyle=1;align=center;verticalAlign=top;childLayout=stackLayout;horizontal=1;startSize=26;horizontalStack=0;resizeParent=1;resizeParentMax=0;resizeLast=0;collapsible=1;marginBottom=0;whiteSpace=wrap;html=1;hachureGap=4;fontFamily=Times New Roman;fontSize=20;fillColor=#e1d5e7;strokeColor=#9673a6;rounded=1;sketch=1;curveFitting=1;jiggle=2;" vertex="1" parent="1">
          <mxGeometry x="1030" y="242" width="500" height="160" as="geometry" />
        </mxCell>
        <mxCell id="FiLHJc2i6cJhPRo3SYG--16" value="+ _task_container: dict(&lt;b&gt;e.g. task_name: Task&lt;/b&gt;)" style="text;strokeColor=#9673a6;fillColor=#e1d5e7;align=left;verticalAlign=top;spacingLeft=4;spacingRight=4;overflow=hidden;rotatable=0;points=[[0,0.5],[1,0.5]];portConstraint=eastwest;whiteSpace=wrap;html=1;fontSize=20;fontFamily=Times New Roman;rounded=1;sketch=1;curveFitting=1;jiggle=2;" vertex="1" parent="FiLHJc2i6cJhPRo3SYG--15">
          <mxGeometry y="26" width="500" height="26" as="geometry" />
        </mxCell>
        <mxCell id="FiLHJc2i6cJhPRo3SYG--17" value="" style="line;strokeWidth=1;fillColor=#e1d5e7;align=left;verticalAlign=middle;spacingTop=-1;spacingLeft=3;spacingRight=3;rotatable=0;labelPosition=right;points=[];portConstraint=eastwest;strokeColor=#9673a6;hachureGap=4;fontFamily=Times New Roman;fontSize=20;html=1;rounded=1;sketch=1;curveFitting=1;jiggle=2;" vertex="1" parent="FiLHJc2i6cJhPRo3SYG--15">
          <mxGeometry y="52" width="500" height="8" as="geometry" />
        </mxCell>
        <mxCell id="FiLHJc2i6cJhPRo3SYG--18" value="+ register(model_name)&lt;br&gt;+ notify_task(kafka_message)" style="text;strokeColor=#9673a6;fillColor=#e1d5e7;align=left;verticalAlign=top;spacingLeft=4;spacingRight=4;overflow=hidden;rotatable=0;points=[[0,0.5],[1,0.5]];portConstraint=eastwest;whiteSpace=wrap;html=1;fontSize=20;fontFamily=Times New Roman;rounded=1;sketch=1;curveFitting=1;jiggle=2;" vertex="1" parent="FiLHJc2i6cJhPRo3SYG--15">
          <mxGeometry y="60" width="500" height="100" as="geometry" />
        </mxCell>
        <mxCell id="FiLHJc2i6cJhPRo3SYG--19" value="Task" style="swimlane;fontStyle=1;align=center;verticalAlign=top;childLayout=stackLayout;horizontal=1;startSize=26;horizontalStack=0;resizeParent=1;resizeParentMax=0;resizeLast=0;collapsible=1;marginBottom=0;whiteSpace=wrap;html=1;hachureGap=4;fontFamily=Times New Roman;fontSize=20;fillColor=#e1d5e7;strokeColor=#9673a6;rounded=1;sketch=1;curveFitting=1;jiggle=2;" vertex="1" parent="1">
          <mxGeometry x="1020" y="585" width="550" height="200" as="geometry" />
        </mxCell>
        <mxCell id="FiLHJc2i6cJhPRo3SYG--20" value="+ process_share_args:processing_share_args&lt;br&gt;+ model_name: string(&lt;b&gt;e.g.: airec_server.standard_user&lt;/b&gt;)" style="text;strokeColor=#9673a6;fillColor=#e1d5e7;align=left;verticalAlign=top;spacingLeft=4;spacingRight=4;overflow=hidden;rotatable=0;points=[[0,0.5],[1,0.5]];portConstraint=eastwest;whiteSpace=wrap;html=1;fontSize=20;fontFamily=Times New Roman;rounded=1;sketch=1;curveFitting=1;jiggle=2;" vertex="1" parent="FiLHJc2i6cJhPRo3SYG--19">
          <mxGeometry y="26" width="550" height="64" as="geometry" />
        </mxCell>
        <mxCell id="FiLHJc2i6cJhPRo3SYG--21" value="" style="line;strokeWidth=1;fillColor=#e1d5e7;align=left;verticalAlign=middle;spacingTop=-1;spacingLeft=3;spacingRight=3;rotatable=0;labelPosition=right;points=[];portConstraint=eastwest;strokeColor=#9673a6;hachureGap=4;fontFamily=Times New Roman;fontSize=20;html=1;rounded=1;sketch=1;curveFitting=1;jiggle=2;" vertex="1" parent="FiLHJc2i6cJhPRo3SYG--19">
          <mxGeometry y="90" width="550" height="8" as="geometry" />
        </mxCell>
        <mxCell id="FiLHJc2i6cJhPRo3SYG--22" value="+ _build_dataset(): DataFrame&lt;br&gt;+ _build_context(): context&lt;br&gt;+ _build_executors(): 根据不同数据模型初始化不同的执行器，增加不同的领域来帮助选择，配置在nacos中。&lt;b&gt;e.g. 电商、学术&lt;/b&gt;" style="text;strokeColor=#9673a6;fillColor=#e1d5e7;align=left;verticalAlign=top;spacingLeft=4;spacingRight=4;overflow=hidden;rotatable=0;points=[[0,0.5],[1,0.5]];portConstraint=eastwest;whiteSpace=wrap;html=1;fontSize=20;fontFamily=Times New Roman;rounded=1;sketch=1;curveFitting=1;jiggle=2;" vertex="1" parent="FiLHJc2i6cJhPRo3SYG--19">
          <mxGeometry y="98" width="550" height="102" as="geometry" />
        </mxCell>
        <mxCell id="FiLHJc2i6cJhPRo3SYG--23" value="SimpleTask" style="swimlane;fontStyle=1;align=center;verticalAlign=top;childLayout=stackLayout;horizontal=1;startSize=26;horizontalStack=0;resizeParent=1;resizeParentMax=0;resizeLast=0;collapsible=1;marginBottom=0;whiteSpace=wrap;html=1;hachureGap=4;fontFamily=Times New Roman;fontSize=20;fillColor=#e1d5e7;strokeColor=#9673a6;rounded=1;sketch=1;curveFitting=1;jiggle=2;" vertex="1" parent="1">
          <mxGeometry x="1083" y="941" width="180" height="86" as="geometry" />
        </mxCell>
        <mxCell id="FiLHJc2i6cJhPRo3SYG--24" value="+ field: type" style="text;strokeColor=#9673a6;fillColor=#e1d5e7;align=left;verticalAlign=top;spacingLeft=4;spacingRight=4;overflow=hidden;rotatable=0;points=[[0,0.5],[1,0.5]];portConstraint=eastwest;whiteSpace=wrap;html=1;fontSize=20;fontFamily=Times New Roman;rounded=1;sketch=1;curveFitting=1;jiggle=2;" vertex="1" parent="FiLHJc2i6cJhPRo3SYG--23">
          <mxGeometry y="26" width="180" height="26" as="geometry" />
        </mxCell>
        <mxCell id="FiLHJc2i6cJhPRo3SYG--25" value="" style="line;strokeWidth=1;fillColor=#e1d5e7;align=left;verticalAlign=middle;spacingTop=-1;spacingLeft=3;spacingRight=3;rotatable=0;labelPosition=right;points=[];portConstraint=eastwest;strokeColor=#9673a6;hachureGap=4;fontFamily=Times New Roman;fontSize=20;html=1;rounded=1;sketch=1;curveFitting=1;jiggle=2;" vertex="1" parent="FiLHJc2i6cJhPRo3SYG--23">
          <mxGeometry y="52" width="180" height="8" as="geometry" />
        </mxCell>
        <mxCell id="FiLHJc2i6cJhPRo3SYG--26" value="+ run(message):&amp;nbsp;" style="text;strokeColor=#9673a6;fillColor=#e1d5e7;align=left;verticalAlign=top;spacingLeft=4;spacingRight=4;overflow=hidden;rotatable=0;points=[[0,0.5],[1,0.5]];portConstraint=eastwest;whiteSpace=wrap;html=1;fontSize=20;fontFamily=Times New Roman;rounded=1;sketch=1;curveFitting=1;jiggle=2;" vertex="1" parent="FiLHJc2i6cJhPRo3SYG--23">
          <mxGeometry y="60" width="180" height="26" as="geometry" />
        </mxCell>
        <mxCell id="FiLHJc2i6cJhPRo3SYG--27" value="TimingTask" style="swimlane;fontStyle=1;align=center;verticalAlign=top;childLayout=stackLayout;horizontal=1;startSize=26;horizontalStack=0;resizeParent=1;resizeParentMax=0;resizeLast=0;collapsible=1;marginBottom=0;whiteSpace=wrap;html=1;hachureGap=4;fontFamily=Times New Roman;fontSize=20;fillColor=#e1d5e7;strokeColor=#9673a6;rounded=1;sketch=1;curveFitting=1;jiggle=2;" vertex="1" parent="1">
          <mxGeometry x="1343" y="941" width="160" height="86" as="geometry" />
        </mxCell>
        <mxCell id="FiLHJc2i6cJhPRo3SYG--28" value="+ field: type" style="text;strokeColor=#9673a6;fillColor=#e1d5e7;align=left;verticalAlign=top;spacingLeft=4;spacingRight=4;overflow=hidden;rotatable=0;points=[[0,0.5],[1,0.5]];portConstraint=eastwest;whiteSpace=wrap;html=1;fontSize=20;fontFamily=Times New Roman;rounded=1;sketch=1;curveFitting=1;jiggle=2;" vertex="1" parent="FiLHJc2i6cJhPRo3SYG--27">
          <mxGeometry y="26" width="160" height="26" as="geometry" />
        </mxCell>
        <mxCell id="FiLHJc2i6cJhPRo3SYG--29" value="" style="line;strokeWidth=1;fillColor=#e1d5e7;align=left;verticalAlign=middle;spacingTop=-1;spacingLeft=3;spacingRight=3;rotatable=0;labelPosition=right;points=[];portConstraint=eastwest;strokeColor=#9673a6;hachureGap=4;fontFamily=Times New Roman;fontSize=20;html=1;rounded=1;sketch=1;curveFitting=1;jiggle=2;" vertex="1" parent="FiLHJc2i6cJhPRo3SYG--27">
          <mxGeometry y="52" width="160" height="8" as="geometry" />
        </mxCell>
        <mxCell id="FiLHJc2i6cJhPRo3SYG--30" value="+ run(message):&amp;nbsp;" style="text;strokeColor=#9673a6;fillColor=#e1d5e7;align=left;verticalAlign=top;spacingLeft=4;spacingRight=4;overflow=hidden;rotatable=0;points=[[0,0.5],[1,0.5]];portConstraint=eastwest;whiteSpace=wrap;html=1;fontSize=20;fontFamily=Times New Roman;rounded=1;sketch=1;curveFitting=1;jiggle=2;" vertex="1" parent="FiLHJc2i6cJhPRo3SYG--27">
          <mxGeometry y="60" width="160" height="26" as="geometry" />
        </mxCell>
        <mxCell id="FiLHJc2i6cJhPRo3SYG--31" value="Extends" style="endArrow=block;endSize=16;endFill=0;html=1;rounded=1;hachureGap=4;fontFamily=Architects Daughter;fontSource=https%3A%2F%2Ffonts.googleapis.com%2Fcss%3Ffamily%3DArchitects%2BDaughter;fontSize=16;exitX=0.576;exitY=0.004;exitDx=0;exitDy=0;exitPerimeter=0;entryX=0.501;entryY=1.078;entryDx=0;entryDy=0;entryPerimeter=0;fillColor=#e1d5e7;strokeColor=#9673a6;sketch=1;curveFitting=1;jiggle=2;" edge="1" parent="1" source="FiLHJc2i6cJhPRo3SYG--23" target="FiLHJc2i6cJhPRo3SYG--22">
          <mxGeometry width="160" relative="1" as="geometry">
            <mxPoint x="1263" y="871" as="sourcePoint" />
            <mxPoint x="1423" y="871" as="targetPoint" />
          </mxGeometry>
        </mxCell>
        <mxCell id="FiLHJc2i6cJhPRo3SYG--32" value="Extends" style="endArrow=block;endSize=16;endFill=0;html=1;rounded=1;hachureGap=4;fontFamily=Architects Daughter;fontSource=https%3A%2F%2Ffonts.googleapis.com%2Fcss%3Ffamily%3DArchitects%2BDaughter;fontSize=16;exitX=0.5;exitY=0;exitDx=0;exitDy=0;fillColor=#e1d5e7;strokeColor=#9673a6;sketch=1;curveFitting=1;jiggle=2;" edge="1" parent="1" source="FiLHJc2i6cJhPRo3SYG--27" target="FiLHJc2i6cJhPRo3SYG--22">
          <mxGeometry width="160" relative="1" as="geometry">
            <mxPoint x="1263" y="871" as="sourcePoint" />
            <mxPoint x="1423" y="871" as="targetPoint" />
          </mxGeometry>
        </mxCell>
        <mxCell id="FiLHJc2i6cJhPRo3SYG--33" value="FeatureExecutor" style="swimlane;fontStyle=1;align=center;verticalAlign=top;childLayout=stackLayout;horizontal=1;startSize=26;horizontalStack=0;resizeParent=1;resizeParentMax=0;resizeLast=0;collapsible=1;marginBottom=0;whiteSpace=wrap;html=1;hachureGap=4;fontFamily=Architects Daughter;fontSource=https%3A%2F%2Ffonts.googleapis.com%2Fcss%3Ffamily%3DArchitects%2BDaughter;fontSize=20;fillColor=#ffe6cc;strokeColor=#d79b00;rounded=1;sketch=1;curveFitting=1;jiggle=2;" vertex="1" parent="1">
          <mxGeometry x="680" y="1169" width="430" height="160" as="geometry" />
        </mxCell>
        <mxCell id="FiLHJc2i6cJhPRo3SYG--34" value="+ _feature_generator: FeatureGenerator" style="text;strokeColor=#d79b00;fillColor=#ffe6cc;align=left;verticalAlign=top;spacingLeft=4;spacingRight=4;overflow=hidden;rotatable=0;points=[[0,0.5],[1,0.5]];portConstraint=eastwest;whiteSpace=wrap;html=1;fontSize=20;fontFamily=Architects Daughter;rounded=1;sketch=1;curveFitting=1;jiggle=2;" vertex="1" parent="FiLHJc2i6cJhPRo3SYG--33">
          <mxGeometry y="26" width="430" height="26" as="geometry" />
        </mxCell>
        <mxCell id="FiLHJc2i6cJhPRo3SYG--35" value="" style="line;strokeWidth=1;fillColor=#ffe6cc;align=left;verticalAlign=middle;spacingTop=-1;spacingLeft=3;spacingRight=3;rotatable=0;labelPosition=right;points=[];portConstraint=eastwest;strokeColor=#d79b00;hachureGap=4;fontFamily=Architects Daughter;fontSource=https%3A%2F%2Ffonts.googleapis.com%2Fcss%3Ffamily%3DArchitects%2BDaughter;fontSize=20;rounded=1;sketch=1;curveFitting=1;jiggle=2;" vertex="1" parent="FiLHJc2i6cJhPRo3SYG--33">
          <mxGeometry y="52" width="430" height="8" as="geometry" />
        </mxCell>
        <mxCell id="FiLHJc2i6cJhPRo3SYG--36" value="+ execute(dataset)&lt;br&gt;+ _output_data(feature_data)" style="text;strokeColor=#d79b00;fillColor=#ffe6cc;align=left;verticalAlign=top;spacingLeft=4;spacingRight=4;overflow=hidden;rotatable=0;points=[[0,0.5],[1,0.5]];portConstraint=eastwest;whiteSpace=wrap;html=1;fontSize=20;fontFamily=Architects Daughter;rounded=1;sketch=1;curveFitting=1;jiggle=2;" vertex="1" parent="FiLHJc2i6cJhPRo3SYG--33">
          <mxGeometry y="60" width="430" height="100" as="geometry" />
        </mxCell>
        <mxCell id="FiLHJc2i6cJhPRo3SYG--37" value="FeatureGenerator" style="swimlane;fontStyle=1;align=center;verticalAlign=top;childLayout=stackLayout;horizontal=1;startSize=26;horizontalStack=0;resizeParent=1;resizeParentMax=0;resizeLast=0;collapsible=1;marginBottom=0;whiteSpace=wrap;html=1;hachureGap=4;fontFamily=Architects Daughter;fontSource=https%3A%2F%2Ffonts.googleapis.com%2Fcss%3Ffamily%3DArchitects%2BDaughter;fontSize=20;fillColor=#ffe6cc;strokeColor=#d79b00;rounded=1;sketch=1;curveFitting=1;jiggle=2;" vertex="1" parent="1">
          <mxGeometry x="30" y="1169" width="530" height="270" as="geometry" />
        </mxCell>
        <mxCell id="FiLHJc2i6cJhPRo3SYG--38" value="+ feature_operators: FeatureOperator" style="text;strokeColor=#d79b00;fillColor=#ffe6cc;align=left;verticalAlign=top;spacingLeft=4;spacingRight=4;overflow=hidden;rotatable=0;points=[[0,0.5],[1,0.5]];portConstraint=eastwest;whiteSpace=wrap;html=1;fontSize=20;fontFamily=Architects Daughter;rounded=1;sketch=1;curveFitting=1;jiggle=2;" vertex="1" parent="FiLHJc2i6cJhPRo3SYG--37">
          <mxGeometry y="26" width="530" height="26" as="geometry" />
        </mxCell>
        <mxCell id="FiLHJc2i6cJhPRo3SYG--39" value="" style="line;strokeWidth=1;fillColor=#ffe6cc;align=left;verticalAlign=middle;spacingTop=-1;spacingLeft=3;spacingRight=3;rotatable=0;labelPosition=right;points=[];portConstraint=eastwest;strokeColor=#d79b00;hachureGap=4;fontFamily=Architects Daughter;fontSource=https%3A%2F%2Ffonts.googleapis.com%2Fcss%3Ffamily%3DArchitects%2BDaughter;fontSize=20;rounded=1;sketch=1;curveFitting=1;jiggle=2;" vertex="1" parent="FiLHJc2i6cJhPRo3SYG--37">
          <mxGeometry y="52" width="530" height="8" as="geometry" />
        </mxCell>
        <mxCell id="FiLHJc2i6cJhPRo3SYG--40" value="+&amp;nbsp;__init_feature_op(): 根据不同模型设置不同的Index字段&lt;br&gt;+ generate_feature(dataset): 根据数据集来生成特征" style="text;strokeColor=#d79b00;fillColor=#ffe6cc;align=left;verticalAlign=top;spacingLeft=4;spacingRight=4;overflow=hidden;rotatable=0;points=[[0,0.5],[1,0.5]];portConstraint=eastwest;whiteSpace=wrap;html=1;fontSize=20;fontFamily=Architects Daughter;rounded=1;sketch=1;curveFitting=1;jiggle=2;" vertex="1" parent="FiLHJc2i6cJhPRo3SYG--37">
          <mxGeometry y="60" width="530" height="210" as="geometry" />
        </mxCell>
        <mxCell id="FiLHJc2i6cJhPRo3SYG--41" value="Use" style="endArrow=open;endSize=12;dashed=1;html=1;rounded=1;hachureGap=4;fontFamily=Architects Daughter;fontSource=https%3A%2F%2Ffonts.googleapis.com%2Fcss%3Ffamily%3DArchitects%2BDaughter;fontSize=16;exitX=-0.003;exitY=0.092;exitDx=0;exitDy=0;exitPerimeter=0;entryX=0.997;entryY=0.043;entryDx=0;entryDy=0;entryPerimeter=0;fillColor=#ffe6cc;strokeColor=#d79b00;sketch=1;curveFitting=1;jiggle=2;" edge="1" parent="1" source="FiLHJc2i6cJhPRo3SYG--33" target="FiLHJc2i6cJhPRo3SYG--37">
          <mxGeometry width="160" relative="1" as="geometry">
            <mxPoint x="600" y="1079" as="sourcePoint" />
            <mxPoint x="620" y="1089" as="targetPoint" />
          </mxGeometry>
        </mxCell>
        <mxCell id="FiLHJc2i6cJhPRo3SYG--42" value="_FeatureOperator" style="swimlane;fontStyle=1;align=center;verticalAlign=top;childLayout=stackLayout;horizontal=1;startSize=26;horizontalStack=0;resizeParent=1;resizeParentMax=0;resizeLast=0;collapsible=1;marginBottom=0;whiteSpace=wrap;html=1;hachureGap=4;fontFamily=Architects Daughter;fontSource=https%3A%2F%2Ffonts.googleapis.com%2Fcss%3Ffamily%3DArchitects%2BDaughter;fontSize=20;fillColor=#ffe6cc;strokeColor=#d79b00;rounded=1;sketch=1;curveFitting=1;jiggle=2;" vertex="1" parent="1">
          <mxGeometry x="-1670" y="1060" width="330" height="130" as="geometry" />
        </mxCell>
        <mxCell id="FiLHJc2i6cJhPRo3SYG--43" value="+ feature_name: string&lt;br&gt;+ _feature_relation_key: string" style="text;strokeColor=#d79b00;fillColor=#ffe6cc;align=left;verticalAlign=top;spacingLeft=4;spacingRight=4;overflow=hidden;rotatable=0;points=[[0,0.5],[1,0.5]];portConstraint=eastwest;whiteSpace=wrap;html=1;fontSize=20;fontFamily=Architects Daughter;rounded=1;sketch=1;curveFitting=1;jiggle=2;" vertex="1" parent="FiLHJc2i6cJhPRo3SYG--42">
          <mxGeometry y="26" width="330" height="64" as="geometry" />
        </mxCell>
        <mxCell id="FiLHJc2i6cJhPRo3SYG--44" value="" style="line;strokeWidth=1;fillColor=#ffe6cc;align=left;verticalAlign=middle;spacingTop=-1;spacingLeft=3;spacingRight=3;rotatable=0;labelPosition=right;points=[];portConstraint=eastwest;strokeColor=#d79b00;hachureGap=4;fontFamily=Architects Daughter;fontSource=https%3A%2F%2Ffonts.googleapis.com%2Fcss%3Ffamily%3DArchitects%2BDaughter;fontSize=20;rounded=1;sketch=1;curveFitting=1;jiggle=2;" vertex="1" parent="FiLHJc2i6cJhPRo3SYG--42">
          <mxGeometry y="90" width="330" height="8" as="geometry" />
        </mxCell>
        <mxCell id="FiLHJc2i6cJhPRo3SYG--45" value="+ operate(dataset)" style="text;strokeColor=#d79b00;fillColor=#ffe6cc;align=left;verticalAlign=top;spacingLeft=4;spacingRight=4;overflow=hidden;rotatable=0;points=[[0,0.5],[1,0.5]];portConstraint=eastwest;whiteSpace=wrap;html=1;fontSize=20;fontFamily=Architects Daughter;rounded=1;sketch=1;curveFitting=1;jiggle=2;" vertex="1" parent="FiLHJc2i6cJhPRo3SYG--42">
          <mxGeometry y="98" width="330" height="32" as="geometry" />
        </mxCell>
        <mxCell id="FiLHJc2i6cJhPRo3SYG--46" value="UserFeatureOperator" style="swimlane;fontStyle=1;align=center;verticalAlign=top;childLayout=stackLayout;horizontal=1;startSize=26;horizontalStack=0;resizeParent=1;resizeParentMax=0;resizeLast=0;collapsible=1;marginBottom=0;whiteSpace=wrap;html=1;hachureGap=4;fontFamily=Architects Daughter;fontSource=https%3A%2F%2Ffonts.googleapis.com%2Fcss%3Ffamily%3DArchitects%2BDaughter;fontSize=20;fillColor=#ffe6cc;strokeColor=#d79b00;rounded=1;sketch=1;curveFitting=1;jiggle=2;" vertex="1" parent="1">
          <mxGeometry x="-2320" y="1390" width="350" height="86" as="geometry" />
        </mxCell>
        <mxCell id="FiLHJc2i6cJhPRo3SYG--47" value="+ _feature_relation_key: string" style="text;strokeColor=#d79b00;fillColor=#ffe6cc;align=left;verticalAlign=top;spacingLeft=4;spacingRight=4;overflow=hidden;rotatable=0;points=[[0,0.5],[1,0.5]];portConstraint=eastwest;whiteSpace=wrap;html=1;fontSize=20;fontFamily=Architects Daughter;rounded=1;sketch=1;curveFitting=1;jiggle=2;" vertex="1" parent="FiLHJc2i6cJhPRo3SYG--46">
          <mxGeometry y="26" width="350" height="26" as="geometry" />
        </mxCell>
        <mxCell id="FiLHJc2i6cJhPRo3SYG--48" value="" style="line;strokeWidth=1;fillColor=#ffe6cc;align=left;verticalAlign=middle;spacingTop=-1;spacingLeft=3;spacingRight=3;rotatable=0;labelPosition=right;points=[];portConstraint=eastwest;strokeColor=#d79b00;hachureGap=4;fontFamily=Architects Daughter;fontSource=https%3A%2F%2Ffonts.googleapis.com%2Fcss%3Ffamily%3DArchitects%2BDaughter;fontSize=20;rounded=1;sketch=1;curveFitting=1;jiggle=2;" vertex="1" parent="FiLHJc2i6cJhPRo3SYG--46">
          <mxGeometry y="52" width="350" height="8" as="geometry" />
        </mxCell>
        <mxCell id="FiLHJc2i6cJhPRo3SYG--49" value="+ method(type): type" style="text;strokeColor=#d79b00;fillColor=#ffe6cc;align=left;verticalAlign=top;spacingLeft=4;spacingRight=4;overflow=hidden;rotatable=0;points=[[0,0.5],[1,0.5]];portConstraint=eastwest;whiteSpace=wrap;html=1;fontSize=20;fontFamily=Architects Daughter;rounded=1;sketch=1;curveFitting=1;jiggle=2;" vertex="1" parent="FiLHJc2i6cJhPRo3SYG--46">
          <mxGeometry y="60" width="350" height="26" as="geometry" />
        </mxCell>
        <mxCell id="FiLHJc2i6cJhPRo3SYG--50" value="ProductFeatureOperator" style="swimlane;fontStyle=1;align=center;verticalAlign=top;childLayout=stackLayout;horizontal=1;startSize=26;horizontalStack=0;resizeParent=1;resizeParentMax=0;resizeLast=0;collapsible=1;marginBottom=0;whiteSpace=wrap;html=1;hachureGap=4;fontFamily=Architects Daughter;fontSource=https%3A%2F%2Ffonts.googleapis.com%2Fcss%3Ffamily%3DArchitects%2BDaughter;fontSize=20;fillColor=#ffe6cc;strokeColor=#d79b00;rounded=1;sketch=1;curveFitting=1;jiggle=2;" vertex="1" parent="1">
          <mxGeometry x="-940" y="1404" width="330" height="86" as="geometry" />
        </mxCell>
        <mxCell id="FiLHJc2i6cJhPRo3SYG--51" value="+ _feature_relation_key: string" style="text;strokeColor=#d79b00;fillColor=#ffe6cc;align=left;verticalAlign=top;spacingLeft=4;spacingRight=4;overflow=hidden;rotatable=0;points=[[0,0.5],[1,0.5]];portConstraint=eastwest;whiteSpace=wrap;html=1;fontSize=20;fontFamily=Architects Daughter;rounded=1;sketch=1;curveFitting=1;jiggle=2;" vertex="1" parent="FiLHJc2i6cJhPRo3SYG--50">
          <mxGeometry y="26" width="330" height="26" as="geometry" />
        </mxCell>
        <mxCell id="FiLHJc2i6cJhPRo3SYG--52" value="" style="line;strokeWidth=1;fillColor=#ffe6cc;align=left;verticalAlign=middle;spacingTop=-1;spacingLeft=3;spacingRight=3;rotatable=0;labelPosition=right;points=[];portConstraint=eastwest;strokeColor=#d79b00;hachureGap=4;fontFamily=Architects Daughter;fontSource=https%3A%2F%2Ffonts.googleapis.com%2Fcss%3Ffamily%3DArchitects%2BDaughter;fontSize=20;rounded=1;sketch=1;curveFitting=1;jiggle=2;" vertex="1" parent="FiLHJc2i6cJhPRo3SYG--50">
          <mxGeometry y="52" width="330" height="8" as="geometry" />
        </mxCell>
        <mxCell id="FiLHJc2i6cJhPRo3SYG--53" value="+ method(type): type" style="text;strokeColor=#d79b00;fillColor=#ffe6cc;align=left;verticalAlign=top;spacingLeft=4;spacingRight=4;overflow=hidden;rotatable=0;points=[[0,0.5],[1,0.5]];portConstraint=eastwest;whiteSpace=wrap;html=1;fontSize=20;fontFamily=Architects Daughter;rounded=1;sketch=1;curveFitting=1;jiggle=2;" vertex="1" parent="FiLHJc2i6cJhPRo3SYG--50">
          <mxGeometry y="60" width="330" height="26" as="geometry" />
        </mxCell>
        <mxCell id="FiLHJc2i6cJhPRo3SYG--54" value="Extends" style="endArrow=block;endSize=16;endFill=0;html=1;rounded=1;hachureGap=4;fontFamily=Architects Daughter;fontSource=https%3A%2F%2Ffonts.googleapis.com%2Fcss%3Ffamily%3DArchitects%2BDaughter;fontSize=16;entryX=0.492;entryY=1.052;entryDx=0;entryDy=0;entryPerimeter=0;exitX=0.545;exitY=-0.021;exitDx=0;exitDy=0;exitPerimeter=0;sketch=1;curveFitting=1;jiggle=2;fillColor=#ffe6cc;strokeColor=#d79b00;" edge="1" parent="1" source="FiLHJc2i6cJhPRo3SYG--46" target="FiLHJc2i6cJhPRo3SYG--45">
          <mxGeometry width="160" relative="1" as="geometry">
            <mxPoint x="-1110" y="1410" as="sourcePoint" />
            <mxPoint x="-950" y="1410" as="targetPoint" />
          </mxGeometry>
        </mxCell>
        <mxCell id="FiLHJc2i6cJhPRo3SYG--55" value="Extends" style="endArrow=block;endSize=16;endFill=0;html=1;rounded=1;hachureGap=4;fontFamily=Architects Daughter;fontSource=https%3A%2F%2Ffonts.googleapis.com%2Fcss%3Ffamily%3DArchitects%2BDaughter;fontSize=16;exitX=0.475;exitY=-0.027;exitDx=0;exitDy=0;exitPerimeter=0;sketch=1;curveFitting=1;jiggle=2;fillColor=#ffe6cc;strokeColor=#d79b00;" edge="1" parent="1" source="FiLHJc2i6cJhPRo3SYG--50" target="FiLHJc2i6cJhPRo3SYG--45">
          <mxGeometry width="160" relative="1" as="geometry">
            <mxPoint x="-1132" y="1412" as="sourcePoint" />
            <mxPoint x="-1000" y="1280" as="targetPoint" />
          </mxGeometry>
        </mxCell>
        <mxCell id="FiLHJc2i6cJhPRo3SYG--56" value="MostProductCategoryOperator" style="swimlane;fontStyle=1;align=center;verticalAlign=top;childLayout=stackLayout;horizontal=1;startSize=26;horizontalStack=0;resizeParent=1;resizeParentMax=0;resizeLast=0;collapsible=1;marginBottom=0;whiteSpace=wrap;html=1;hachureGap=4;fontFamily=Architects Daughter;fontSource=https%3A%2F%2Ffonts.googleapis.com%2Fcss%3Ffamily%3DArchitects%2BDaughter;fontSize=20;fillColor=#ffe6cc;strokeColor=#d79b00;rounded=1;sketch=1;curveFitting=1;jiggle=2;" vertex="1" parent="1">
          <mxGeometry x="-2340" y="1654" width="360" height="86" as="geometry" />
        </mxCell>
        <mxCell id="FiLHJc2i6cJhPRo3SYG--57" value="+ field: type" style="text;strokeColor=#d79b00;fillColor=#ffe6cc;align=left;verticalAlign=top;spacingLeft=4;spacingRight=4;overflow=hidden;rotatable=0;points=[[0,0.5],[1,0.5]];portConstraint=eastwest;whiteSpace=wrap;html=1;fontSize=20;fontFamily=Architects Daughter;rounded=1;sketch=1;curveFitting=1;jiggle=2;" vertex="1" parent="FiLHJc2i6cJhPRo3SYG--56">
          <mxGeometry y="26" width="360" height="26" as="geometry" />
        </mxCell>
        <mxCell id="FiLHJc2i6cJhPRo3SYG--58" value="" style="line;strokeWidth=1;fillColor=#ffe6cc;align=left;verticalAlign=middle;spacingTop=-1;spacingLeft=3;spacingRight=3;rotatable=0;labelPosition=right;points=[];portConstraint=eastwest;strokeColor=#d79b00;hachureGap=4;fontFamily=Architects Daughter;fontSource=https%3A%2F%2Ffonts.googleapis.com%2Fcss%3Ffamily%3DArchitects%2BDaughter;fontSize=20;rounded=1;sketch=1;curveFitting=1;jiggle=2;" vertex="1" parent="FiLHJc2i6cJhPRo3SYG--56">
          <mxGeometry y="52" width="360" height="8" as="geometry" />
        </mxCell>
        <mxCell id="FiLHJc2i6cJhPRo3SYG--59" value="+ method(type): type" style="text;strokeColor=#d79b00;fillColor=#ffe6cc;align=left;verticalAlign=top;spacingLeft=4;spacingRight=4;overflow=hidden;rotatable=0;points=[[0,0.5],[1,0.5]];portConstraint=eastwest;whiteSpace=wrap;html=1;fontSize=20;fontFamily=Architects Daughter;rounded=1;sketch=1;curveFitting=1;jiggle=2;" vertex="1" parent="FiLHJc2i6cJhPRo3SYG--56">
          <mxGeometry y="60" width="360" height="26" as="geometry" />
        </mxCell>
        <mxCell id="FiLHJc2i6cJhPRo3SYG--60" value="UserItemMatrix" style="swimlane;fontStyle=1;align=center;verticalAlign=top;childLayout=stackLayout;horizontal=1;startSize=26;horizontalStack=0;resizeParent=1;resizeParentMax=0;resizeLast=0;collapsible=1;marginBottom=0;whiteSpace=wrap;html=1;hachureGap=4;fontFamily=Architects Daughter;fontSource=https%3A%2F%2Ffonts.googleapis.com%2Fcss%3Ffamily%3DArchitects%2BDaughter;fontSize=20;fillColor=#ffe6cc;strokeColor=#d79b00;rounded=1;sketch=1;curveFitting=1;jiggle=2;" vertex="1" parent="1">
          <mxGeometry x="1210" y="1169" width="370" height="198" as="geometry" />
        </mxCell>
        <mxCell id="FiLHJc2i6cJhPRo3SYG--61" value="+ _user_column: string&lt;br&gt;+ _item_column: string" style="text;strokeColor=#d79b00;fillColor=#ffe6cc;align=left;verticalAlign=top;spacingLeft=4;spacingRight=4;overflow=hidden;rotatable=0;points=[[0,0.5],[1,0.5]];portConstraint=eastwest;whiteSpace=wrap;html=1;fontSize=20;fontFamily=Architects Daughter;rounded=1;sketch=1;curveFitting=1;jiggle=2;" vertex="1" parent="FiLHJc2i6cJhPRo3SYG--60">
          <mxGeometry y="26" width="370" height="64" as="geometry" />
        </mxCell>
        <mxCell id="FiLHJc2i6cJhPRo3SYG--62" value="" style="line;strokeWidth=1;fillColor=#ffe6cc;align=left;verticalAlign=middle;spacingTop=-1;spacingLeft=3;spacingRight=3;rotatable=0;labelPosition=right;points=[];portConstraint=eastwest;strokeColor=#d79b00;hachureGap=4;fontFamily=Architects Daughter;fontSource=https%3A%2F%2Ffonts.googleapis.com%2Fcss%3Ffamily%3DArchitects%2BDaughter;fontSize=20;rounded=1;sketch=1;curveFitting=1;jiggle=2;" vertex="1" parent="FiLHJc2i6cJhPRo3SYG--60">
          <mxGeometry y="90" width="370" height="8" as="geometry" />
        </mxCell>
        <mxCell id="FiLHJc2i6cJhPRo3SYG--63" value="+ load_item_data():dataset&lt;br&gt;+ calc_matrix(save_path,data)" style="text;strokeColor=#d79b00;fillColor=#ffe6cc;align=left;verticalAlign=top;spacingLeft=4;spacingRight=4;overflow=hidden;rotatable=0;points=[[0,0.5],[1,0.5]];portConstraint=eastwest;whiteSpace=wrap;html=1;fontSize=20;fontFamily=Architects Daughter;rounded=1;sketch=1;curveFitting=1;jiggle=2;" vertex="1" parent="FiLHJc2i6cJhPRo3SYG--60">
          <mxGeometry y="98" width="370" height="100" as="geometry" />
        </mxCell>
        <mxCell id="FiLHJc2i6cJhPRo3SYG--65" value="Use" style="endArrow=open;endSize=12;dashed=1;html=1;rounded=1;hachureGap=4;fontFamily=Architects Daughter;fontSource=https%3A%2F%2Ffonts.googleapis.com%2Fcss%3Ffamily%3DArchitects%2BDaughter;fontSize=16;exitX=1;exitY=0.099;exitDx=0;exitDy=0;exitPerimeter=0;entryX=0.005;entryY=0.085;entryDx=0;entryDy=0;entryPerimeter=0;fillColor=#ffe6cc;strokeColor=#d79b00;sketch=1;curveFitting=1;jiggle=2;" edge="1" parent="1" source="FiLHJc2i6cJhPRo3SYG--33" target="FiLHJc2i6cJhPRo3SYG--60">
          <mxGeometry width="160" relative="1" as="geometry">
            <mxPoint x="587" y="1227" as="sourcePoint" />
            <mxPoint x="730" y="1219" as="targetPoint" />
          </mxGeometry>
        </mxCell>
        <mxCell id="FiLHJc2i6cJhPRo3SYG--66" value="Use" style="endArrow=open;endSize=12;dashed=1;html=1;rounded=1;hachureGap=4;fontFamily=Architects Daughter;fontSource=https%3A%2F%2Ffonts.googleapis.com%2Fcss%3Ffamily%3DArchitects%2BDaughter;fontSize=16;exitX=0;exitY=0.5;exitDx=0;exitDy=0;entryX=1.013;entryY=0.084;entryDx=0;entryDy=0;entryPerimeter=0;sketch=1;curveFitting=1;jiggle=2;" edge="1" parent="1" source="FiLHJc2i6cJhPRo3SYG--38" target="FiLHJc2i6cJhPRo3SYG--42">
          <mxGeometry width="160" relative="1" as="geometry">
            <mxPoint x="629" y="1135" as="sourcePoint" />
            <mxPoint x="508" y="1132" as="targetPoint" />
          </mxGeometry>
        </mxCell>
        <mxCell id="FiLHJc2i6cJhPRo3SYG--67" value="MostBuyBrandFeatureOperator" style="swimlane;fontStyle=1;align=center;verticalAlign=top;childLayout=stackLayout;horizontal=1;startSize=26;horizontalStack=0;resizeParent=1;resizeParentMax=0;resizeLast=0;collapsible=1;marginBottom=0;whiteSpace=wrap;html=1;hachureGap=4;fontFamily=Architects Daughter;fontSource=https%3A%2F%2Ffonts.googleapis.com%2Fcss%3Ffamily%3DArchitects%2BDaughter;fontSize=20;fillColor=#ffe6cc;strokeColor=#d79b00;rounded=1;sketch=1;curveFitting=1;jiggle=2;" vertex="1" parent="1">
          <mxGeometry x="-2770" y="1650" width="360" height="86" as="geometry" />
        </mxCell>
        <mxCell id="FiLHJc2i6cJhPRo3SYG--68" value="+ field: type" style="text;strokeColor=#d79b00;fillColor=#ffe6cc;align=left;verticalAlign=top;spacingLeft=4;spacingRight=4;overflow=hidden;rotatable=0;points=[[0,0.5],[1,0.5]];portConstraint=eastwest;whiteSpace=wrap;html=1;fontSize=20;fontFamily=Architects Daughter;rounded=1;sketch=1;curveFitting=1;jiggle=2;" vertex="1" parent="FiLHJc2i6cJhPRo3SYG--67">
          <mxGeometry y="26" width="360" height="26" as="geometry" />
        </mxCell>
        <mxCell id="FiLHJc2i6cJhPRo3SYG--69" value="" style="line;strokeWidth=1;fillColor=#ffe6cc;align=left;verticalAlign=middle;spacingTop=-1;spacingLeft=3;spacingRight=3;rotatable=0;labelPosition=right;points=[];portConstraint=eastwest;strokeColor=#d79b00;hachureGap=4;fontFamily=Architects Daughter;fontSource=https%3A%2F%2Ffonts.googleapis.com%2Fcss%3Ffamily%3DArchitects%2BDaughter;fontSize=20;rounded=1;sketch=1;curveFitting=1;jiggle=2;" vertex="1" parent="FiLHJc2i6cJhPRo3SYG--67">
          <mxGeometry y="52" width="360" height="8" as="geometry" />
        </mxCell>
        <mxCell id="FiLHJc2i6cJhPRo3SYG--70" value="+ method(type): type" style="text;strokeColor=#d79b00;fillColor=#ffe6cc;align=left;verticalAlign=top;spacingLeft=4;spacingRight=4;overflow=hidden;rotatable=0;points=[[0,0.5],[1,0.5]];portConstraint=eastwest;whiteSpace=wrap;html=1;fontSize=20;fontFamily=Architects Daughter;rounded=1;sketch=1;curveFitting=1;jiggle=2;" vertex="1" parent="FiLHJc2i6cJhPRo3SYG--67">
          <mxGeometry y="60" width="360" height="26" as="geometry" />
        </mxCell>
        <mxCell id="FiLHJc2i6cJhPRo3SYG--71" value="MostProductAtomCategoryOperator" style="swimlane;fontStyle=1;align=center;verticalAlign=top;childLayout=stackLayout;horizontal=1;startSize=26;horizontalStack=0;resizeParent=1;resizeParentMax=0;resizeLast=0;collapsible=1;marginBottom=0;whiteSpace=wrap;html=1;hachureGap=4;fontFamily=Architects Daughter;fontSource=https%3A%2F%2Ffonts.googleapis.com%2Fcss%3Ffamily%3DArchitects%2BDaughter;fontSize=20;fillColor=#ffe6cc;strokeColor=#d79b00;rounded=1;sketch=1;curveFitting=1;jiggle=2;" vertex="1" parent="1">
          <mxGeometry x="-1880" y="1654" width="360" height="86" as="geometry" />
        </mxCell>
        <mxCell id="FiLHJc2i6cJhPRo3SYG--72" value="+ field: type" style="text;strokeColor=#d79b00;fillColor=#ffe6cc;align=left;verticalAlign=top;spacingLeft=4;spacingRight=4;overflow=hidden;rotatable=0;points=[[0,0.5],[1,0.5]];portConstraint=eastwest;whiteSpace=wrap;html=1;fontSize=20;fontFamily=Architects Daughter;rounded=1;sketch=1;curveFitting=1;jiggle=2;" vertex="1" parent="FiLHJc2i6cJhPRo3SYG--71">
          <mxGeometry y="26" width="360" height="26" as="geometry" />
        </mxCell>
        <mxCell id="FiLHJc2i6cJhPRo3SYG--73" value="" style="line;strokeWidth=1;fillColor=#ffe6cc;align=left;verticalAlign=middle;spacingTop=-1;spacingLeft=3;spacingRight=3;rotatable=0;labelPosition=right;points=[];portConstraint=eastwest;strokeColor=#d79b00;hachureGap=4;fontFamily=Architects Daughter;fontSource=https%3A%2F%2Ffonts.googleapis.com%2Fcss%3Ffamily%3DArchitects%2BDaughter;fontSize=20;rounded=1;sketch=1;curveFitting=1;jiggle=2;" vertex="1" parent="FiLHJc2i6cJhPRo3SYG--71">
          <mxGeometry y="52" width="360" height="8" as="geometry" />
        </mxCell>
        <mxCell id="FiLHJc2i6cJhPRo3SYG--74" value="+ method(type): type" style="text;strokeColor=#d79b00;fillColor=#ffe6cc;align=left;verticalAlign=top;spacingLeft=4;spacingRight=4;overflow=hidden;rotatable=0;points=[[0,0.5],[1,0.5]];portConstraint=eastwest;whiteSpace=wrap;html=1;fontSize=20;fontFamily=Architects Daughter;rounded=1;sketch=1;curveFitting=1;jiggle=2;" vertex="1" parent="FiLHJc2i6cJhPRo3SYG--71">
          <mxGeometry y="60" width="360" height="26" as="geometry" />
        </mxCell>
        <mxCell id="FiLHJc2i6cJhPRo3SYG--75" value="BrandFeatureOperator" style="swimlane;fontStyle=1;align=center;verticalAlign=top;childLayout=stackLayout;horizontal=1;startSize=26;horizontalStack=0;resizeParent=1;resizeParentMax=0;resizeLast=0;collapsible=1;marginBottom=0;whiteSpace=wrap;html=1;hachureGap=4;fontFamily=Architects Daughter;fontSource=https%3A%2F%2Ffonts.googleapis.com%2Fcss%3Ffamily%3DArchitects%2BDaughter;fontSize=20;fillColor=#ffe6cc;strokeColor=#d79b00;rounded=1;sketch=1;curveFitting=1;jiggle=2;" vertex="1" parent="1">
          <mxGeometry x="-1370" y="1650" width="360" height="86" as="geometry" />
        </mxCell>
        <mxCell id="FiLHJc2i6cJhPRo3SYG--76" value="+ field: type" style="text;strokeColor=#d79b00;fillColor=#ffe6cc;align=left;verticalAlign=top;spacingLeft=4;spacingRight=4;overflow=hidden;rotatable=0;points=[[0,0.5],[1,0.5]];portConstraint=eastwest;whiteSpace=wrap;html=1;fontSize=20;fontFamily=Architects Daughter;rounded=1;sketch=1;curveFitting=1;jiggle=2;" vertex="1" parent="FiLHJc2i6cJhPRo3SYG--75">
          <mxGeometry y="26" width="360" height="26" as="geometry" />
        </mxCell>
        <mxCell id="FiLHJc2i6cJhPRo3SYG--77" value="" style="line;strokeWidth=1;fillColor=#ffe6cc;align=left;verticalAlign=middle;spacingTop=-1;spacingLeft=3;spacingRight=3;rotatable=0;labelPosition=right;points=[];portConstraint=eastwest;strokeColor=#d79b00;hachureGap=4;fontFamily=Architects Daughter;fontSource=https%3A%2F%2Ffonts.googleapis.com%2Fcss%3Ffamily%3DArchitects%2BDaughter;fontSize=20;rounded=1;sketch=1;curveFitting=1;jiggle=2;" vertex="1" parent="FiLHJc2i6cJhPRo3SYG--75">
          <mxGeometry y="52" width="360" height="8" as="geometry" />
        </mxCell>
        <mxCell id="FiLHJc2i6cJhPRo3SYG--78" value="+ method(type): type" style="text;strokeColor=#d79b00;fillColor=#ffe6cc;align=left;verticalAlign=top;spacingLeft=4;spacingRight=4;overflow=hidden;rotatable=0;points=[[0,0.5],[1,0.5]];portConstraint=eastwest;whiteSpace=wrap;html=1;fontSize=20;fontFamily=Architects Daughter;rounded=1;sketch=1;curveFitting=1;jiggle=2;" vertex="1" parent="FiLHJc2i6cJhPRo3SYG--75">
          <mxGeometry y="60" width="360" height="26" as="geometry" />
        </mxCell>
        <mxCell id="FiLHJc2i6cJhPRo3SYG--79" value="MainCategoryFeatureOperator" style="swimlane;fontStyle=1;align=center;verticalAlign=top;childLayout=stackLayout;horizontal=1;startSize=26;horizontalStack=0;resizeParent=1;resizeParentMax=0;resizeLast=0;collapsible=1;marginBottom=0;whiteSpace=wrap;html=1;hachureGap=4;fontFamily=Architects Daughter;fontSource=https%3A%2F%2Ffonts.googleapis.com%2Fcss%3Ffamily%3DArchitects%2BDaughter;fontSize=20;fillColor=#ffe6cc;strokeColor=#d79b00;rounded=1;sketch=1;curveFitting=1;jiggle=2;" vertex="1" parent="1">
          <mxGeometry x="-910" y="1650" width="360" height="86" as="geometry" />
        </mxCell>
        <mxCell id="FiLHJc2i6cJhPRo3SYG--80" value="+ field: type" style="text;strokeColor=#d79b00;fillColor=#ffe6cc;align=left;verticalAlign=top;spacingLeft=4;spacingRight=4;overflow=hidden;rotatable=0;points=[[0,0.5],[1,0.5]];portConstraint=eastwest;whiteSpace=wrap;html=1;fontSize=20;fontFamily=Architects Daughter;rounded=1;sketch=1;curveFitting=1;jiggle=2;" vertex="1" parent="FiLHJc2i6cJhPRo3SYG--79">
          <mxGeometry y="26" width="360" height="26" as="geometry" />
        </mxCell>
        <mxCell id="FiLHJc2i6cJhPRo3SYG--81" value="" style="line;strokeWidth=1;fillColor=#ffe6cc;align=left;verticalAlign=middle;spacingTop=-1;spacingLeft=3;spacingRight=3;rotatable=0;labelPosition=right;points=[];portConstraint=eastwest;strokeColor=#d79b00;hachureGap=4;fontFamily=Architects Daughter;fontSource=https%3A%2F%2Ffonts.googleapis.com%2Fcss%3Ffamily%3DArchitects%2BDaughter;fontSize=20;rounded=1;sketch=1;curveFitting=1;jiggle=2;" vertex="1" parent="FiLHJc2i6cJhPRo3SYG--79">
          <mxGeometry y="52" width="360" height="8" as="geometry" />
        </mxCell>
        <mxCell id="FiLHJc2i6cJhPRo3SYG--82" value="+ method(type): type" style="text;strokeColor=#d79b00;fillColor=#ffe6cc;align=left;verticalAlign=top;spacingLeft=4;spacingRight=4;overflow=hidden;rotatable=0;points=[[0,0.5],[1,0.5]];portConstraint=eastwest;whiteSpace=wrap;html=1;fontSize=20;fontFamily=Architects Daughter;rounded=1;sketch=1;curveFitting=1;jiggle=2;" vertex="1" parent="FiLHJc2i6cJhPRo3SYG--79">
          <mxGeometry y="60" width="360" height="26" as="geometry" />
        </mxCell>
        <mxCell id="FiLHJc2i6cJhPRo3SYG--87" value="AtomCategoryFeatureOperator" style="swimlane;fontStyle=1;align=center;verticalAlign=top;childLayout=stackLayout;horizontal=1;startSize=26;horizontalStack=0;resizeParent=1;resizeParentMax=0;resizeLast=0;collapsible=1;marginBottom=0;whiteSpace=wrap;html=1;hachureGap=4;fontFamily=Architects Daughter;fontSource=https%3A%2F%2Ffonts.googleapis.com%2Fcss%3Ffamily%3DArchitects%2BDaughter;fontSize=20;fillColor=#ffe6cc;strokeColor=#d79b00;rounded=1;sketch=1;curveFitting=1;jiggle=2;" vertex="1" parent="1">
          <mxGeometry x="-470" y="1650" width="360" height="86" as="geometry" />
        </mxCell>
        <mxCell id="FiLHJc2i6cJhPRo3SYG--88" value="+ field: type" style="text;strokeColor=#d79b00;fillColor=#ffe6cc;align=left;verticalAlign=top;spacingLeft=4;spacingRight=4;overflow=hidden;rotatable=0;points=[[0,0.5],[1,0.5]];portConstraint=eastwest;whiteSpace=wrap;html=1;fontSize=20;fontFamily=Architects Daughter;rounded=1;sketch=1;curveFitting=1;jiggle=2;" vertex="1" parent="FiLHJc2i6cJhPRo3SYG--87">
          <mxGeometry y="26" width="360" height="26" as="geometry" />
        </mxCell>
        <mxCell id="FiLHJc2i6cJhPRo3SYG--89" value="" style="line;strokeWidth=1;fillColor=#ffe6cc;align=left;verticalAlign=middle;spacingTop=-1;spacingLeft=3;spacingRight=3;rotatable=0;labelPosition=right;points=[];portConstraint=eastwest;strokeColor=#d79b00;hachureGap=4;fontFamily=Architects Daughter;fontSource=https%3A%2F%2Ffonts.googleapis.com%2Fcss%3Ffamily%3DArchitects%2BDaughter;fontSize=20;rounded=1;sketch=1;curveFitting=1;jiggle=2;" vertex="1" parent="FiLHJc2i6cJhPRo3SYG--87">
          <mxGeometry y="52" width="360" height="8" as="geometry" />
        </mxCell>
        <mxCell id="FiLHJc2i6cJhPRo3SYG--90" value="+ method(type): type" style="text;strokeColor=#d79b00;fillColor=#ffe6cc;align=left;verticalAlign=top;spacingLeft=4;spacingRight=4;overflow=hidden;rotatable=0;points=[[0,0.5],[1,0.5]];portConstraint=eastwest;whiteSpace=wrap;html=1;fontSize=20;fontFamily=Architects Daughter;rounded=1;sketch=1;curveFitting=1;jiggle=2;" vertex="1" parent="FiLHJc2i6cJhPRo3SYG--87">
          <mxGeometry y="60" width="360" height="26" as="geometry" />
        </mxCell>
        <mxCell id="FiLHJc2i6cJhPRo3SYG--91" value="Extends" style="endArrow=block;endSize=16;endFill=0;html=1;rounded=1;hachureGap=4;fontFamily=Architects Daughter;fontSource=https%3A%2F%2Ffonts.googleapis.com%2Fcss%3Ffamily%3DArchitects%2BDaughter;fontSize=16;exitX=0.5;exitY=0;exitDx=0;exitDy=0;entryX=0.491;entryY=1.077;entryDx=0;entryDy=0;entryPerimeter=0;fillColor=#ffe6cc;strokeColor=#d79b00;sketch=1;curveFitting=1;jiggle=2;" edge="1" parent="1" source="FiLHJc2i6cJhPRo3SYG--67" target="FiLHJc2i6cJhPRo3SYG--49">
          <mxGeometry width="160" relative="1" as="geometry">
            <mxPoint x="-2480" y="1660" as="sourcePoint" />
            <mxPoint x="-2320" y="1660" as="targetPoint" />
          </mxGeometry>
        </mxCell>
        <mxCell id="FiLHJc2i6cJhPRo3SYG--92" value="Extends" style="endArrow=block;endSize=16;endFill=0;html=1;rounded=1;hachureGap=4;fontFamily=Architects Daughter;fontSource=https%3A%2F%2Ffonts.googleapis.com%2Fcss%3Ffamily%3DArchitects%2BDaughter;fontSize=16;exitX=0.5;exitY=0;exitDx=0;exitDy=0;fillColor=#ffe6cc;strokeColor=#d79b00;sketch=1;curveFitting=1;jiggle=2;" edge="1" parent="1" source="FiLHJc2i6cJhPRo3SYG--56">
          <mxGeometry width="160" relative="1" as="geometry">
            <mxPoint x="-3320" y="1650" as="sourcePoint" />
            <mxPoint x="-2160" y="1470" as="targetPoint" />
          </mxGeometry>
        </mxCell>
        <mxCell id="FiLHJc2i6cJhPRo3SYG--93" value="Extends" style="endArrow=block;endSize=16;endFill=0;html=1;rounded=1;hachureGap=4;fontFamily=Architects Daughter;fontSource=https%3A%2F%2Ffonts.googleapis.com%2Fcss%3Ffamily%3DArchitects%2BDaughter;fontSize=16;exitX=0.5;exitY=0;exitDx=0;exitDy=0;entryX=0.51;entryY=0.954;entryDx=0;entryDy=0;entryPerimeter=0;fillColor=#ffe6cc;strokeColor=#d79b00;sketch=1;curveFitting=1;jiggle=2;" edge="1" parent="1" source="FiLHJc2i6cJhPRo3SYG--71" target="FiLHJc2i6cJhPRo3SYG--49">
          <mxGeometry width="160" relative="1" as="geometry">
            <mxPoint x="-3310" y="1660" as="sourcePoint" />
            <mxPoint x="-2128" y="1498" as="targetPoint" />
          </mxGeometry>
        </mxCell>
        <mxCell id="FiLHJc2i6cJhPRo3SYG--94" value="Extends" style="endArrow=block;endSize=16;endFill=0;html=1;rounded=1;hachureGap=4;fontFamily=Architects Daughter;fontSource=https%3A%2F%2Ffonts.googleapis.com%2Fcss%3Ffamily%3DArchitects%2BDaughter;fontSize=16;entryX=0.499;entryY=1.031;entryDx=0;entryDy=0;entryPerimeter=0;exitX=0.5;exitY=0;exitDx=0;exitDy=0;fillColor=#ffe6cc;strokeColor=#d79b00;sketch=1;curveFitting=1;jiggle=2;" edge="1" parent="1" source="FiLHJc2i6cJhPRo3SYG--75" target="FiLHJc2i6cJhPRo3SYG--53">
          <mxGeometry width="160" relative="1" as="geometry">
            <mxPoint x="-1350" y="1690" as="sourcePoint" />
            <mxPoint x="-1190" y="1690" as="targetPoint" />
          </mxGeometry>
        </mxCell>
        <mxCell id="FiLHJc2i6cJhPRo3SYG--95" value="Extends" style="endArrow=block;endSize=16;endFill=0;html=1;rounded=1;hachureGap=4;fontFamily=Architects Daughter;fontSource=https%3A%2F%2Ffonts.googleapis.com%2Fcss%3Ffamily%3DArchitects%2BDaughter;fontSize=16;exitX=0.405;exitY=-0.028;exitDx=0;exitDy=0;exitPerimeter=0;entryX=0.513;entryY=1.031;entryDx=0;entryDy=0;entryPerimeter=0;fillColor=#ffe6cc;strokeColor=#d79b00;sketch=1;curveFitting=1;jiggle=2;" edge="1" parent="1" source="FiLHJc2i6cJhPRo3SYG--79" target="FiLHJc2i6cJhPRo3SYG--53">
          <mxGeometry width="160" relative="1" as="geometry">
            <mxPoint x="-1180" y="1660" as="sourcePoint" />
            <mxPoint x="-790" y="1490" as="targetPoint" />
          </mxGeometry>
        </mxCell>
        <mxCell id="FiLHJc2i6cJhPRo3SYG--96" value="Extends" style="endArrow=block;endSize=16;endFill=0;html=1;rounded=1;hachureGap=4;fontFamily=Architects Daughter;fontSource=https%3A%2F%2Ffonts.googleapis.com%2Fcss%3Ffamily%3DArchitects%2BDaughter;fontSize=16;exitX=0.5;exitY=0;exitDx=0;exitDy=0;fillColor=#ffe6cc;strokeColor=#d79b00;sketch=1;curveFitting=1;jiggle=2;" edge="1" parent="1" source="FiLHJc2i6cJhPRo3SYG--87" target="FiLHJc2i6cJhPRo3SYG--53">
          <mxGeometry width="160" relative="1" as="geometry">
            <mxPoint x="-1170" y="1670" as="sourcePoint" />
            <mxPoint x="-755" y="1511" as="targetPoint" />
          </mxGeometry>
        </mxCell>
        <mxCell id="FiLHJc2i6cJhPRo3SYG--97" value="Use" style="endArrow=open;endSize=12;dashed=1;html=1;rounded=1;hachureGap=4;fontFamily=Architects Daughter;fontSource=https%3A%2F%2Ffonts.googleapis.com%2Fcss%3Ffamily%3DArchitects%2BDaughter;fontSize=16;exitX=-0.003;exitY=0.097;exitDx=0;exitDy=0;exitPerimeter=0;entryX=0.5;entryY=0;entryDx=0;entryDy=0;sketch=1;curveFitting=1;jiggle=2;" edge="1" parent="1" source="FiLHJc2i6cJhPRo3SYG--19" target="FiLHJc2i6cJhPRo3SYG--33">
          <mxGeometry width="160" relative="1" as="geometry">
            <mxPoint x="689" y="1194" as="sourcePoint" />
            <mxPoint x="568" y="1191" as="targetPoint" />
          </mxGeometry>
        </mxCell>
        <mxCell id="FiLHJc2i6cJhPRo3SYG--99" value="Use" style="endArrow=open;endSize=12;dashed=1;html=1;rounded=1;hachureGap=4;fontFamily=Architects Daughter;fontSource=https%3A%2F%2Ffonts.googleapis.com%2Fcss%3Ffamily%3DArchitects%2BDaughter;fontSize=16;exitX=0.505;exitY=1.008;exitDx=0;exitDy=0;exitPerimeter=0;entryX=0.5;entryY=0;entryDx=0;entryDy=0;fillColor=#e1d5e7;strokeColor=#9673a6;sketch=1;curveFitting=1;jiggle=2;" edge="1" parent="1" source="FiLHJc2i6cJhPRo3SYG--18" target="FiLHJc2i6cJhPRo3SYG--19">
          <mxGeometry width="160" relative="1" as="geometry">
            <mxPoint x="1028" y="614" as="sourcePoint" />
            <mxPoint x="328" y="1179" as="targetPoint" />
          </mxGeometry>
        </mxCell>
        <mxCell id="FiLHJc2i6cJhPRo3SYG--100" value="Use" style="endArrow=open;endSize=12;dashed=1;html=1;rounded=1;hachureGap=4;fontFamily=Architects Daughter;fontSource=https%3A%2F%2Ffonts.googleapis.com%2Fcss%3Ffamily%3DArchitects%2BDaughter;fontSize=16;exitX=0.998;exitY=-0.128;exitDx=0;exitDy=0;exitPerimeter=0;entryX=0;entryY=0.25;entryDx=0;entryDy=0;sketch=1;curveFitting=1;jiggle=2;" edge="1" parent="1" source="FiLHJc2i6cJhPRo3SYG--20" target="wlWRHj6FngoxgrmBRWXh-1">
          <mxGeometry width="160" relative="1" as="geometry">
            <mxPoint x="1293" y="413" as="sourcePoint" />
            <mxPoint x="1305" y="595" as="targetPoint" />
          </mxGeometry>
        </mxCell>
        <mxCell id="FiLHJc2i6cJhPRo3SYG--101" value="Use" style="endArrow=open;endSize=12;dashed=1;html=1;rounded=1;hachureGap=4;fontFamily=Architects Daughter;fontSource=https%3A%2F%2Ffonts.googleapis.com%2Fcss%3Ffamily%3DArchitects%2BDaughter;fontSize=16;exitX=0.996;exitY=0.132;exitDx=0;exitDy=0;exitPerimeter=0;entryX=0.002;entryY=0.115;entryDx=0;entryDy=0;entryPerimeter=0;sketch=1;curveFitting=1;jiggle=2;" edge="1" parent="1" source="FiLHJc2i6cJhPRo3SYG--1" target="FiLHJc2i6cJhPRo3SYG--15">
          <mxGeometry width="160" relative="1" as="geometry">
            <mxPoint x="1293" y="413" as="sourcePoint" />
            <mxPoint x="1305" y="595" as="targetPoint" />
          </mxGeometry>
        </mxCell>
      </root>
    </mxGraphModel>
  </diagram>
  <diagram id="Iswviskoln7IoZJgM1sN" name="第 3 页">
    <mxGraphModel dx="1548" dy="902" grid="1" gridSize="10" guides="1" tooltips="1" connect="1" arrows="1" fold="1" page="1" pageScale="1" pageWidth="827" pageHeight="1169" math="0" shadow="0">
      <root>
        <mxCell id="0" />
        <mxCell id="1" parent="0" />
      </root>
    </mxGraphModel>
  </diagram>
</mxfile>
